<?xml version="1.0" encoding="UTF-8"?>
<!DOCTYPE svg PUBLIC "-//W3C//DTD SVG 1.1//EN" "http://www.w3.org/Graphics/SVG/1.1/DTD/svg11.dtd">
<svg xmlns="http://www.w3.org/2000/svg" version="1.1" width="200px" height="200px" style="shape-rendering:geometricPrecision; text-rendering:geometricPrecision; image-rendering:optimizeQuality; fill-rule:evenodd; clip-rule:evenodd" xmlns:xlink="http://www.w3.org/1999/xlink">
<g><path style="opacity:0.976" fill="#f6f6f6" d="M 182.5,11.5 C 183.71,11.9321 184.71,12.5987 185.5,13.5C 170.897,35.0406 155.564,56.0406 139.5,76.5C 140.482,73.2365 141.149,69.9032 141.5,66.5C 155.52,48.4727 169.187,30.1394 182.5,11.5 Z"/></g>
<g><path style="opacity:0.946" fill="#116a3d" d="M 116.5,17.5 C 118.971,21.3562 119.138,25.3562 117,29.5C 112.167,33.6667 107.333,37.8333 102.5,42C 103.793,42.49 105.127,42.6567 106.5,42.5C 110.833,42.5 115.167,42.5 119.5,42.5C 119.5,43.8333 119.5,45.1667 119.5,46.5C 112.833,46.5 106.167,46.5 99.5,46.5C 99.399,51.5784 98.0657,56.245 95.5,60.5C 92.795,62.5116 90.1283,64.5116 87.5,66.5C 79.7336,69.0864 71.7336,70.0864 63.5,69.5C 63.5,66.8333 63.5,64.1667 63.5,61.5C 64.4916,61.6716 65.1583,61.3382 65.5,60.5C 73.723,62.2232 80.8896,60.2232 87,54.5C 92.0254,44.8988 89.5254,38.2321 79.5,34.5C 74.4469,32.7396 69.1136,32.073 63.5,32.5C 63.5,29.8333 63.5,27.1667 63.5,24.5C 68.5,24.5 73.5,24.5 78.5,24.5C 84.3449,24.5957 89.3449,26.5957 93.5,30.5C 95.9955,33.4832 97.9955,36.8165 99.5,40.5C 100.298,40.0431 100.631,39.3764 100.5,38.5C 105.062,34.6249 109.562,30.6249 114,26.5C 114.678,24.4024 114.511,22.4024 113.5,20.5C 111.545,18.6742 109.212,18.1742 106.5,19C 104.134,20.957 102.134,23.1237 100.5,25.5C 99.4138,25.38 98.7472,24.7133 98.5,23.5C 99.4722,17.5918 102.972,14.5918 109,14.5C 111.956,14.568 114.456,15.568 116.5,17.5 Z"/></g>
<g><path style="opacity:0.991" fill="#b4b2b2" d="M 187.5,14.5 C 189.389,15.604 191.055,16.9373 192.5,18.5C 192.291,19.9217 191.791,21.255 191,22.5C 176.58,41.6853 162.413,61.0186 148.5,80.5C 146.983,80.5106 145.816,81.1772 145,82.5C 146.366,78.4165 148.7,74.7499 152,71.5C 152.153,68.8494 152.987,66.5161 154.5,64.5C 156.935,63.7298 158.269,62.0632 158.5,59.5C 159.573,58.7494 159.74,57.7494 159,56.5C 158.329,57.2524 157.496,57.5858 156.5,57.5C 166.421,42.9056 176.754,28.5723 187.5,14.5 Z"/></g>
<g><path style="opacity:0.4" fill="#b1b8b7" d="M 113.5,20.5 C 111.473,20.3379 109.473,20.5045 107.5,21C 106.181,23.2852 104.681,25.4518 103,27.5C 102.005,26.9341 101.172,26.2674 100.5,25.5C 102.134,23.1237 104.134,20.957 106.5,19C 109.212,18.1742 111.545,18.6742 113.5,20.5 Z"/></g>
<g><path style="opacity:0.971" fill="#994f24" d="M 17.5,25.5 C 28.711,53.5927 40.211,81.5927 52,109.5C 52.4955,107.527 52.6621,105.527 52.5,103.5C 52.5,92.5 52.5,81.5 52.5,70.5C 53.4962,55.3424 53.8295,40.0091 53.5,24.5C 56.5,24.5 59.5,24.5 62.5,24.5C 62.1684,56.671 62.5018,88.671 63.5,120.5C 64.4916,120.672 65.1583,120.338 65.5,119.5C 70.8437,119.666 76.1771,119.499 81.5,119C 73.2903,102.65 73.6236,86.4834 82.5,70.5C 83.1667,70.5 83.5,70.1667 83.5,69.5C 85.4044,69.2624 86.7377,68.2624 87.5,66.5C 90.1283,64.5116 92.795,62.5116 95.5,60.5C 97.0618,60.2671 98.3951,59.6005 99.5,58.5C 100.167,58.5 100.5,58.1667 100.5,57.5C 109.797,55.193 119.131,55.0263 128.5,57C 130.852,57.2401 132.852,58.0735 134.5,59.5C 133.4,61.2774 132.566,63.2774 132,65.5C 130.644,66.3802 129.144,66.7135 127.5,66.5C 110.935,60.745 98.1019,65.4116 89,80.5C 85.0521,92.6235 86.0521,104.29 92,115.5C 94.4356,118.447 97.2689,120.78 100.5,122.5C 110.991,126.481 121.491,126.481 132,122.5C 132.464,123.094 132.631,123.761 132.5,124.5C 134.812,129.711 133.146,132.545 127.5,133C 117.788,135.038 108.121,134.872 98.5,132.5C 96.7162,132.107 95.0495,131.441 93.5,130.5C 93.3893,129.883 93.056,129.383 92.5,129C 79.5043,128.5 66.5043,128.333 53.5,128.5C 51.1119,127.781 49.6119,126.115 49,123.5C 38.6662,97.5134 27.8328,71.8467 16.5,46.5C 16.3822,43.3117 15.5489,40.3117 14,37.5C 13.5,67.8315 13.3334,98.1648 13.5,128.5C 11.1667,128.5 8.83333,128.5 6.5,128.5C 4.50669,94.1827 3.84002,59.5161 4.5,24.5C 9.03225,24.1818 13.3656,24.5151 17.5,25.5 Z M 82.5,70.5 C 73.6236,86.4834 73.2903,102.65 81.5,119C 76.1771,119.499 70.8437,119.666 65.5,119.5C 65.5,103.167 65.5,86.8333 65.5,70.5C 71.1667,70.5 76.8333,70.5 82.5,70.5 Z"/></g>
<g><path style="opacity:0.8" fill="#9e7658" d="M 78.5,24.5 C 73.5,24.5 68.5,24.5 63.5,24.5C 63.5,27.1667 63.5,29.8333 63.5,32.5C 63.5,42.1667 63.5,51.8333 63.5,61.5C 63.5,64.1667 63.5,66.8333 63.5,69.5C 63.5,86.5 63.5,103.5 63.5,120.5C 62.5018,88.671 62.1684,56.671 62.5,24.5C 59.5,24.5 56.5,24.5 53.5,24.5C 53.8295,40.0091 53.4962,55.3424 52.5,70.5C 52.5,54.8333 52.5,39.1667 52.5,23.5C 61.3494,23.1736 70.0161,23.507 78.5,24.5 Z"/></g>
<g><path style="opacity:0.422" fill="#bfbfbf" d="M 178.5,10.5 C 178.938,10.4346 179.272,10.6012 179.5,11C 176.171,18.3307 171.338,24.4974 165,29.5C 159.525,35.6348 154.858,42.3015 151,49.5C 147.604,52.6326 144.438,55.9659 141.5,59.5C 141.343,58.1266 141.51,56.7932 142,55.5C 154.41,40.6013 166.576,25.6013 178.5,10.5 Z"/></g>
<g><path style="opacity:1" fill="#e7e8e9" d="M 197.5,25.5 C 197.833,26.5 198.5,27.1667 199.5,27.5C 199.5,28.5 199.5,29.5 199.5,30.5C 191.593,39.9846 183.926,49.6513 176.5,59.5C 176.5,58.1667 176.5,56.8333 176.5,55.5C 177.248,53.6675 178.248,52.0009 179.5,50.5C 185.255,41.9901 191.255,33.6568 197.5,25.5 Z"/></g>
<g><path style="opacity:1" fill="#7c7b7b" d="M 193.5,19.5 C 195.027,19.427 196.027,20.0937 196.5,21.5C 195.504,21.4142 194.671,21.7476 194,22.5C 181.59,39.397 169.423,56.397 157.5,73.5C 157.5,74.1667 157.833,74.5 158.5,74.5C 157.359,75.339 156.026,76.0057 154.5,76.5C 153.479,75.9984 153.312,75.3317 154,74.5C 167.798,56.5486 180.965,38.2153 193.5,19.5 Z"/></g>
<g><path style="opacity:0.802" fill="#bbbebf" d="M 116.5,17.5 C 117.496,17.4142 118.329,17.7476 119,18.5C 121.524,22.0317 121.857,25.6984 120,29.5C 115.658,34.0092 111.158,38.3425 106.5,42.5C 105.127,42.6567 103.793,42.49 102.5,42C 107.333,37.8333 112.167,33.6667 117,29.5C 119.138,25.3562 118.971,21.3562 116.5,17.5 Z"/></g>
<g><path style="opacity:1" fill="#646363" d="M 196.5,21.5 C 197.5,21.8333 198.167,22.5 198.5,23.5C 197.153,22.8288 195.986,22.8288 195,23.5C 183.021,40.6333 170.521,57.2999 157.5,73.5C 169.423,56.397 181.59,39.397 194,22.5C 194.671,21.7476 195.504,21.4142 196.5,21.5 Z"/></g>
<g><path style="opacity:0.659" fill="#a2abaa" d="M 93.5,30.5 C 97.2079,31.8869 99.5412,34.5535 100.5,38.5C 100.631,39.3764 100.298,40.0431 99.5,40.5C 97.9955,36.8165 95.9955,33.4832 93.5,30.5 Z"/></g>
<g><path style="opacity:1" fill="#d3d3d4" d="M 178.5,10.5 C 179.962,9.52909 181.295,9.86242 182.5,11.5C 169.187,30.1394 155.52,48.4727 141.5,66.5C 141.5,64.1667 141.5,61.8333 141.5,59.5C 144.438,55.9659 147.604,52.6326 151,49.5C 154.858,42.3015 159.525,35.6348 165,29.5C 171.338,24.4974 176.171,18.3307 179.5,11C 179.272,10.6012 178.938,10.4346 178.5,10.5 Z"/></g>
<g><path style="opacity:1" fill="#d8d6d5" d="M 185.5,13.5 C 186.492,13.3284 187.158,13.6618 187.5,14.5C 176.754,28.5723 166.421,42.9056 156.5,57.5C 154.738,58.2623 153.738,59.5956 153.5,61.5C 148.5,67.5 143.5,73.5 138.5,79.5C 138.557,78.391 138.89,77.391 139.5,76.5C 155.564,56.0406 170.897,35.0406 185.5,13.5 Z"/></g>
<g><path style="opacity:0.8" fill="#8a8f90" d="M 63.5,32.5 C 69.1136,32.073 74.4469,32.7396 79.5,34.5C 74.8333,34.5 70.1667,34.5 65.5,34.5C 65.5,43.1667 65.5,51.8333 65.5,60.5C 65.1583,61.3382 64.4916,61.6716 63.5,61.5C 63.5,51.8333 63.5,42.1667 63.5,32.5 Z"/></g>
<g><path style="opacity:0.702" fill="#726e6e" d="M 17.5,25.5 C 18.4959,25.4142 19.3292,25.7476 20,26.5C 30.371,52.4711 41.2043,78.1377 52.5,103.5C 52.6621,105.527 52.4955,107.527 52,109.5C 40.211,81.5927 28.711,53.5927 17.5,25.5 Z"/></g>
<g><path style="opacity:0.994" fill="#a8adad" d="M 119.5,42.5 C 121.759,43.344 122.759,45.0107 122.5,47.5C 115.833,47.5 109.167,47.5 102.5,47.5C 102.149,50.9032 101.482,54.2365 100.5,57.5C 99.8333,57.5 99.5,57.8333 99.5,58.5C 98.3951,59.6005 97.0618,60.2671 95.5,60.5C 98.0657,56.245 99.399,51.5784 99.5,46.5C 106.167,46.5 112.833,46.5 119.5,46.5C 119.5,45.1667 119.5,43.8333 119.5,42.5 Z"/></g>
<g><path style="opacity:1" fill="#4c4c4c" d="M 198.5,23.5 C 198.167,24.1667 197.833,24.8333 197.5,25.5C 191.255,33.6568 185.255,41.9901 179.5,50.5C 179.649,49.448 179.483,48.448 179,47.5C 172.899,56.0515 167.065,64.7181 161.5,73.5C 160.791,74.404 159.791,74.7373 158.5,74.5C 157.833,74.5 157.5,74.1667 157.5,73.5C 170.521,57.2999 183.021,40.6333 195,23.5C 195.986,22.8288 197.153,22.8288 198.5,23.5 Z"/></g>
<g><path style="opacity:0.639" fill="#67686a" d="M 158.5,59.5 C 156.065,60.2702 154.731,61.9368 154.5,64.5C 154.167,64.5 153.833,64.5 153.5,64.5C 153.5,63.5 153.5,62.5 153.5,61.5C 153.738,59.5956 154.738,58.2623 156.5,57.5C 157.496,57.5858 158.329,57.2524 159,56.5C 159.74,57.7494 159.573,58.7494 158.5,59.5 Z"/></g>
<g><path style="opacity:0.816" fill="#c2bab7" d="M 134.5,59.5 C 135.586,59.62 136.253,60.2867 136.5,61.5C 136.028,68.386 133.028,70.0527 127.5,66.5C 129.144,66.7135 130.644,66.3802 132,65.5C 132.566,63.2774 133.4,61.2774 134.5,59.5 Z"/></g>
<g><path style="opacity:1" fill="#bebaba" d="M 153.5,61.5 C 153.5,62.5 153.5,63.5 153.5,64.5C 148.579,71.2668 143.413,77.9334 138,84.5C 137.805,85.8193 137.972,87.1526 138.5,88.5C 137.225,90.8484 135.892,90.6818 134.5,88C 135.565,84.9357 136.899,82.1024 138.5,79.5C 143.5,73.5 148.5,67.5 153.5,61.5 Z"/></g>
<g><path style="opacity:1" fill="#363636" d="M 179.5,50.5 C 178.248,52.0009 177.248,53.6675 176.5,55.5C 172.473,60.8747 168.807,66.5414 165.5,72.5C 164.292,73.2341 162.959,73.5674 161.5,73.5C 167.065,64.7181 172.899,56.0515 179,47.5C 179.483,48.448 179.649,49.448 179.5,50.5 Z"/></g>
<g><path style="opacity:1" fill="#979798" d="M 192.5,18.5 C 193.167,18.5 193.5,18.8333 193.5,19.5C 180.965,38.2153 167.798,56.5486 154,74.5C 153.312,75.3317 153.479,75.9984 154.5,76.5C 156.026,76.0057 157.359,75.339 158.5,74.5C 159.791,74.7373 160.791,74.404 161.5,73.5C 162.959,73.5674 164.292,73.2341 165.5,72.5C 165.5,73.1667 165.5,73.8333 165.5,74.5C 159.779,76.0753 154.112,78.0753 148.5,80.5C 162.413,61.0186 176.58,41.6853 191,22.5C 191.791,21.255 192.291,19.9217 192.5,18.5 Z"/></g>
<g><path style="opacity:0.165" fill="#cacbcc" d="M 176.5,55.5 C 176.5,56.8333 176.5,58.1667 176.5,59.5C 173.188,64.8045 169.521,69.8045 165.5,74.5C 165.5,73.8333 165.5,73.1667 165.5,72.5C 168.807,66.5414 172.473,60.8747 176.5,55.5 Z"/></g>
<g><path style="opacity:1" fill="#a19fa0" d="M 153.5,64.5 C 153.833,64.5 154.167,64.5 154.5,64.5C 152.987,66.5161 152.153,68.8494 152,71.5C 148.7,74.7499 146.366,78.4165 145,82.5C 145.816,81.1772 146.983,80.5106 148.5,80.5C 145.48,83.5162 142.146,86.1829 138.5,88.5C 137.972,87.1526 137.805,85.8193 138,84.5C 143.413,77.9334 148.579,71.2668 153.5,64.5 Z"/></g>
<g><path style="opacity:1" fill="#5d5451" d="M 16.5,46.5 C 16.5,54.5 16.5,62.5 16.5,70.5C 15.5029,89.9929 15.1696,109.66 15.5,129.5C 12.5,129.5 9.5,129.5 6.5,129.5C 6.5,129.167 6.5,128.833 6.5,128.5C 8.83333,128.5 11.1667,128.5 13.5,128.5C 13.3334,98.1648 13.5,67.8315 14,37.5C 15.5489,40.3117 16.3822,43.3117 16.5,46.5 Z"/></g>
<g><path style="opacity:0.4" fill="#bcbcbd" d="M 16.5,70.5 C 16.5,90.5 16.5,110.5 16.5,130.5C 12.9581,130.813 9.62482,130.479 6.5,129.5C 9.5,129.5 12.5,129.5 15.5,129.5C 15.1696,109.66 15.5029,89.9929 16.5,70.5 Z"/></g>
<g><path style="opacity:0.558" fill="#9c9a9b" d="M 127.5,66.5 C 99.271,64.2306 86.771,77.2306 90,105.5C 91.4761,112.459 94.9761,118.126 100.5,122.5C 97.2689,120.78 94.4356,118.447 92,115.5C 86.0521,104.29 85.0521,92.6235 89,80.5C 98.1019,65.4116 110.935,60.745 127.5,66.5 Z"/></g>
<g><path style="opacity:0.953" fill="#0f6a3c" d="M 170.5,93.5 C 170.5,96.8333 170.5,100.167 170.5,103.5C 162.648,103.175 154.982,103.508 147.5,104.5C 147.5,132.167 147.5,159.833 147.5,187.5C 144.615,187.194 141.948,187.527 139.5,188.5C 138.5,188.5 137.5,188.5 136.5,188.5C 136.5,169.833 136.5,151.167 136.5,132.5C 136.5,131.5 136.5,130.5 136.5,129.5C 136.5,121.5 136.5,113.5 136.5,105.5C 129.109,105.799 121.776,105.465 114.5,104.5C 113.511,100.893 113.177,97.226 113.5,93.5C 132.5,93.5 151.5,93.5 170.5,93.5 Z"/></g>
<g><path style="opacity:1" fill="#8f9193" d="M 87.5,66.5 C 86.7377,68.2624 85.4044,69.2624 83.5,69.5C 82.8333,69.5 82.5,69.8333 82.5,70.5C 76.8333,70.5 71.1667,70.5 65.5,70.5C 65.5,86.8333 65.5,103.167 65.5,119.5C 65.1583,120.338 64.4916,120.672 63.5,120.5C 63.5,103.5 63.5,86.5 63.5,69.5C 71.7336,70.0864 79.7336,69.0864 87.5,66.5 Z"/></g>
<g><path style="opacity:1" fill="#639a81" d="M 170.5,93.5 C 171.167,93.5 171.5,93.8333 171.5,94.5C 171.5,97.8333 171.5,101.167 171.5,104.5C 163.5,104.5 155.5,104.5 147.5,104.5C 154.982,103.508 162.648,103.175 170.5,103.5C 170.5,100.167 170.5,96.8333 170.5,93.5 Z"/></g>
<g><path style="opacity:0.524" fill="#939396" d="M 53.5,128.5 C 66.5043,128.333 79.5043,128.5 92.5,129C 93.056,129.383 93.3893,129.883 93.5,130.5C 79.7914,131.148 66.4581,130.481 53.5,128.5 Z"/></g>
<g><path style="opacity:0.795" fill="#b1acab" d="M 136.5,129.5 C 136.5,130.5 136.5,131.5 136.5,132.5C 123.715,137.723 111.049,137.723 98.5,132.5C 108.121,134.872 117.788,135.038 127.5,133C 133.146,132.545 134.812,129.711 132.5,124.5C 133.117,124.389 133.617,124.056 134,123.5C 134.845,125.611 135.678,127.611 136.5,129.5 Z"/></g>
<g><path style="opacity:0.399" fill="#252122" d="M -0.5,147.5 C 7.01006,148.336 14.6767,148.336 22.5,147.5C 22.5,149.167 22.5,150.833 22.5,152.5C 14.6532,152.382 6.98655,152.382 -0.5,152.5C -0.5,150.833 -0.5,149.167 -0.5,147.5 Z"/></g>
<g><path style="opacity:0.416" fill="#221f1f" d="M 23.5,148.5 C 24.209,147.596 25.209,147.263 26.5,147.5C 26.281,148.675 26.6143,149.675 27.5,150.5C 35.6318,148.573 43.9651,147.906 52.5,148.5C 52.5,149.833 52.5,151.167 52.5,152.5C 42.8629,153.528 33.1963,153.362 23.5,152C 24.7911,150.708 24.7911,149.542 23.5,148.5 Z"/></g>
<g><path style="opacity:0.41" fill="#221f1f" d="M 53.5,148.5 C 63.557,148.671 73.8903,148.671 84.5,148.5C 84.5,150.167 84.5,151.833 84.5,153.5C 75.5253,152.784 66.5253,152.284 57.5,152C 58.4506,151.282 58.6172,150.449 58,149.5C 57.0943,151.612 55.5943,152.445 53.5,152C 54.7911,150.708 54.7911,149.542 53.5,148.5 Z"/></g>
<g><path style="opacity:0.422" fill="#221f1f" d="M 87.5,147.5 C 90.9103,147.384 92.2436,149.05 91.5,152.5C 85.9856,153.358 84.6523,151.692 87.5,147.5 Z"/></g>
<g><path style="opacity:0.409" fill="#231f20" d="M 93.5,147.5 C 103.981,148.087 114.648,148.421 125.5,148.5C 125.5,149.833 125.5,151.167 125.5,152.5C 120.789,152.282 116.122,152.615 111.5,153.5C 106.288,153.212 101.288,152.212 96.5,150.5C 95.3044,150.846 95.3044,151.346 96.5,152C 95.552,152.483 94.552,152.649 93.5,152.5C 93.5,150.833 93.5,149.167 93.5,147.5 Z"/></g>
<g><path style="opacity:0.315" fill="#221f1f" d="M 126.5,149.5 C 128.288,149.215 129.955,149.548 131.5,150.5C 130.667,150.833 129.833,151.167 129,151.5C 127.624,151.316 126.791,150.649 126.5,149.5 Z"/></g>
<g><path style="opacity:1" fill="#bdbfc1" d="M 171.5,94.5 C 173.414,97.6843 174.08,101.351 173.5,105.5C 165.5,105.5 157.5,105.5 149.5,105.5C 149.5,133.5 149.5,161.5 149.5,189.5C 145.958,189.813 142.625,189.479 139.5,188.5C 141.948,187.527 144.615,187.194 147.5,187.5C 147.5,159.833 147.5,132.167 147.5,104.5C 155.5,104.5 163.5,104.5 171.5,104.5C 171.5,101.167 171.5,97.8333 171.5,94.5 Z"/></g>
<g><path style="opacity:0.412" fill="#221f1f" d="M 6.5,155.5 C 12.9869,155.286 19.4869,155.953 26,157.5C 28.8333,156.333 29.6667,157.167 28.5,160C 21.144,160.831 13.8107,160.665 6.5,159.5C 5.19314,158.135 5.19314,156.802 6.5,155.5 Z M 8.5,156.5 C 9.39695,157.598 10.2303,157.598 11,156.5C 11.6667,157.5 11.6667,158.5 11,159.5C 10.3333,158.167 9.66667,158.167 9,159.5C 8.51722,158.552 8.35055,157.552 8.5,156.5 Z"/></g>
<g><path style="opacity:0.411" fill="#221f1f" d="M 30.5,155.5 C 38.8959,155.92 47.2292,156.254 55.5,156.5C 55.5,157.833 55.5,159.167 55.5,160.5C 47.1667,160.5 38.8333,160.5 30.5,160.5C 30.5,158.833 30.5,157.167 30.5,155.5 Z"/></g>
<g><path style="opacity:0.422" fill="#221f1f" d="M 56.5,155.5 C 68.2477,155.414 79.5811,155.747 90.5,156.5C 90.5,157.833 90.5,159.167 90.5,160.5C 79.495,160.667 68.495,160.5 57.5,160C 58.0219,159.439 58.3552,158.772 58.5,158C 57.4909,157.645 56.8243,156.812 56.5,155.5 Z"/></g>
<g><path style="opacity:0.395" fill="#221f1f" d="M 121.5,160.5 C 111.494,160.666 101.494,160.5 91.5,160C 92.8333,158.667 92.8333,157.333 91.5,156C 92.448,155.517 93.448,155.351 94.5,155.5C 94.3433,156.873 94.51,158.207 95,159.5C 96.2732,157.428 98.1065,156.095 100.5,155.5C 105.167,156.833 109.833,156.833 114.5,155.5C 118.159,156.101 121.826,156.767 125.5,157.5C 124.96,158.748 124.293,159.915 123.5,161C 122.563,161.692 121.897,161.525 121.5,160.5 Z M 121.5,160.5 C 120.537,159.637 120.537,158.97 121.5,158.5C 122.773,159.257 122.773,159.923 121.5,160.5 Z"/></g>
<g><path style="opacity:0.348" fill="#2d292a" d="M 1.5,164.5 C 2.58317,164.539 3.58317,164.873 4.5,165.5C 5.83333,167.5 5.83333,169.5 4.5,171.5C 3.5,170.167 2.5,170.167 1.5,171.5C 0.285687,169.141 0.285687,166.808 1.5,164.5 Z"/></g>
<g><path style="opacity:0.467" fill="#292526" d="M 8.5,164.5 C 10.9209,164.034 12.9209,164.867 14.5,167C 14.0338,168.299 14.0338,169.799 14.5,171.5C 12.076,171.808 9.74269,171.474 7.5,170.5C 7.46263,168.678 7.79597,166.678 8.5,164.5 Z"/></g>
<g><path style="opacity:0.445" fill="#282425" d="M 16.5,164.5 C 18.205,165.535 19.8716,165.535 21.5,164.5C 22.4742,166.743 22.8076,169.076 22.5,171.5C 20.5,171.5 18.5,171.5 16.5,171.5C 16.5,169.167 16.5,166.833 16.5,164.5 Z"/></g>
<g><path style="opacity:0.336" fill="#282425" d="M 26.5,164.5 C 28.1789,164.892 29.8455,165.392 31.5,166C 30.6705,167.816 29.8372,169.649 29,171.5C 28.2588,170.359 27.4255,170.359 26.5,171.5C 25.7696,169.659 25.1029,167.825 24.5,166C 25.4158,165.722 26.0825,165.222 26.5,164.5 Z"/></g>
<g><path style="opacity:0.523" fill="#292526" d="M 35.5,164.5 C 36.8221,164.33 37.9887,164.663 39,165.5C 39.4955,167.473 39.6621,169.473 39.5,171.5C 37.1432,171.663 34.8098,171.497 32.5,171C 33.0694,168.568 34.0694,166.401 35.5,164.5 Z"/></g>
<g><path style="opacity:0.503" fill="#2a2627" d="M 42.5,164.5 C 44.1667,164.5 45.8333,164.5 47.5,164.5C 47.2436,166.792 47.5769,168.959 48.5,171C 42.0864,172.755 40.0864,170.589 42.5,164.5 Z"/></g>
<g><path style="opacity:0.516" fill="#2b2728" d="M 50.5,164.5 C 52.2012,164.966 53.7012,164.966 55,164.5C 56.488,167.194 56.3213,169.528 54.5,171.5C 52.9793,171.12 51.3126,170.954 49.5,171C 49.9679,169.178 50.3012,167.011 50.5,164.5 Z"/></g>
<g><path style="opacity:0.376" fill="#252122" d="M 60.5,164.5 C 65.3886,165.988 65.722,168.322 61.5,171.5C 58.2105,169.352 57.8772,167.019 60.5,164.5 Z"/></g>
<g><path style="opacity:0.558" fill="#2b2728" d="M 68.5,164.5 C 70.4286,164.231 72.0953,164.731 73.5,166C 72.5939,167.699 72.2606,169.533 72.5,171.5C 70.8333,171.5 69.1667,171.5 67.5,171.5C 67.0033,169.403 66.67,167.57 66.5,166C 67.4158,165.722 68.0825,165.222 68.5,164.5 Z"/></g>
<g><path style="opacity:0.595" fill="#2f2b2c" d="M 75.5,164.5 C 80.9064,163.735 82.9064,166.069 81.5,171.5C 79.2075,171.756 77.0408,171.423 75,170.5C 74.8922,168.517 75.0589,166.517 75.5,164.5 Z"/></g>
<g><path style="opacity:0.474" fill="#272324" d="M 83.5,164.5 C 85.5,164.5 87.5,164.5 89.5,164.5C 90.9064,169.931 88.9064,172.265 83.5,171.5C 83.5,169.167 83.5,166.833 83.5,164.5 Z"/></g>
<g><path style="opacity:0.688" fill="#2a2727" d="M 93.5,164.5 C 95.4286,164.231 97.0953,164.731 98.5,166C 97.5939,167.699 97.2606,169.533 97.5,171.5C 95.8333,171.5 94.1667,171.5 92.5,171.5C 92.4809,169.94 92.1476,168.44 91.5,167C 92.0556,165.989 92.7222,165.156 93.5,164.5 Z"/></g>
<g><path style="opacity:0.468" fill="#2a2627" d="M 100.5,164.5 C 102.5,164.5 104.5,164.5 106.5,164.5C 107.906,169.931 105.906,172.265 100.5,171.5C 100.15,168.959 100.15,166.626 100.5,164.5 Z"/></g>
<g><path style="opacity:0.456" fill="#282425" d="M 109.5,164.5 C 111.597,164.997 113.43,165.33 115,165.5C 115.507,166.996 115.007,168.163 113.5,169C 113.957,169.414 114.291,169.914 114.5,170.5C 112.579,171.641 110.579,171.808 108.5,171C 108.917,168.807 109.251,166.641 109.5,164.5 Z"/></g>
<g><path style="opacity:0.54" fill="#272324" d="M 117.5,164.5 C 122.906,163.735 124.906,166.069 123.5,171.5C 117.022,172.7 115.022,170.366 117.5,164.5 Z"/></g>
<g><path style="opacity:0.368" fill="#221f1f" d="M 127.5,164.5 C 128.583,164.539 129.583,164.873 130.5,165.5C 131.466,167.396 131.799,169.396 131.5,171.5C 129.5,171.5 127.5,171.5 125.5,171.5C 125.185,168.789 125.852,166.456 127.5,164.5 Z"/></g>
</svg>
